{
  "header": {
    "format": 1,
    "numTracks": 4,
    "ticksPerBeat": 96
  },
  "tracks": [
    [
      {
        "deltaTime": 0,
        "meta": true,
        "type": "setTempo",
        "microsecondsPerBeat": 333333
      },
      {
        "deltaTime": 0,
        "meta": true,
        "type": "timeSignature",
        "numerator": 4,
        "denominator": 4,
        "metronome": 24,
        "thirtyseconds": 8
      },
      {
        "deltaTime": 0,
        "meta": true,
        "type": "endOfTrack"
      }
    ],
    [
      {
        "deltaTime": 0,
        "meta": true,
        "type": "trackName",
        "text": "Empty 5"
      },
      {
        "deltaTime": 288,
        "channel": 4,
        "type": "noteOn",
        "noteNumber": 39,
        "velocity": 127
      },
      {
        "deltaTime": 0,
        "channel": 4,
        "type": "noteOff",
        "noteNumber": 39,
        "velocity": 64
      },
      {
        "deltaTime": 0,
        "channel": 4,
        "type": "noteOn",
        "noteNumber": 41,
        "velocity": 127
      },
      {
        "deltaTime": 0,
        "channel": 4,
        "type": "noteOff",
        "noteNumber": 41,
        "velocity": 64
      },
      {
        "deltaTime": 48,
        "channel": 4,
        "type": "noteOn",
        "noteNumber": 39,
        "velocity": 127
      },
      {
        "deltaTime": 0,
        "channel": 4,
        "type": "noteOff",
        "noteNumber": 39,
        "velocity": 64
      },
      {
        "deltaTime": 0,
        "channel": 4,
        "type": "noteOn",
        "noteNumber": 41,
        "velocity": 127
      },
      {
        "deltaTime": 0,
        "channel": 4,
        "type": "noteOff",
        "noteNumber": 41,
        "velocity": 64
      },
      {
        "deltaTime": 168,
        "channel": 4,
        "type": "noteOn",
        "noteNumber": 39,
        "velocity": 127
      },
      {
        "deltaTime": 0,
        "channel": 4,
        "type": "noteOff",
        "noteNumber": 39,
        "velocity": 64
      },
      {
        "deltaTime": 0,
        "channel": 4,
        "type": "noteOn",
        "noteNumber": 37,
        "velocity": 127
      },
      {
        "deltaTime": 0,
        "channel": 4,
        "type": "noteOff",
        "noteNumber": 37,
        "velocity": 64
      },
      {
        "deltaTime": 528,
        "channel": 4,
        "type": "noteOn",
        "noteNumber": 42,
        "velocity": 127
      },
      {
        "deltaTime": 0,
        "channel": 4,
        "type": "noteOff",
        "noteNumber": 42,
        "velocity": 64
      },
      {
        "deltaTime": 0,
        "channel": 4,
        "type": "noteOn",
        "noteNumber": 40,
        "velocity": 127
      },
      {
        "deltaTime": 0,
        "channel": 4,
        "type": "noteOff",
        "noteNumber": 40,
        "velocity": 64
      },
      {
        "deltaTime": 54,
        "channel": 4,
        "type": "noteOn",
        "noteNumber": 40,
        "velocity": 127
      },
      {
        "deltaTime": 0,
        "channel": 4,
        "type": "noteOff",
        "noteNumber": 40,
        "velocity": 64
      },
      {
        "deltaTime": 0,
        "channel": 4,
        "type": "noteOn",
        "noteNumber": 38,
        "velocity": 127
      },
      {
        "deltaTime": 0,
        "channel": 4,
        "type": "noteOff",
        "noteNumber": 38,
        "velocity": 64
      },
      {
        "deltaTime": 54,
        "channel": 4,
        "type": "noteOn",
        "noteNumber": 38,
        "velocity": 127
      },
      {
        "deltaTime": 0,
        "channel": 4,
        "type": "noteOff",
        "noteNumber": 38,
        "velocity": 64
      },
      {
        "deltaTime": 0,
        "channel": 4,
        "type": "noteOn",
        "noteNumber": 36,
        "velocity": 127
      },
      {
        "deltaTime": 0,
        "channel": 4,
        "type": "noteOff",
        "noteNumber": 36,
        "velocity": 64
      },
      {
        "deltaTime": 84,
        "channel": 4,
        "type": "noteOn",
        "noteNumber": 36,
        "velocity": 127
      },
      {
        "deltaTime": 0,
        "channel": 4,
        "type": "noteOff",
        "noteNumber": 36,
        "velocity": 64
      },
      {
        "deltaTime": 0,
        "channel": 4,
        "type": "noteOn",
        "noteNumber": 38,
        "velocity": 127
      },
      {
        "deltaTime": 0,
        "channel": 4,
        "type": "noteOff",
        "noteNumber": 38,
        "velocity": 64
      },
      {
        "deltaTime": 54,
        "channel": 4,
        "type": "noteOn",
        "noteNumber": 38,
        "velocity": 127
      },
      {
        "deltaTime": 0,
        "channel": 4,
        "type": "noteOff",
        "noteNumber": 38,
        "velocity": 64
      },
      {
        "deltaTime": 0,
        "channel": 4,
        "type": "noteOn",
        "noteNumber": 40,
        "velocity": 127
      },
      {
        "deltaTime": 0,
        "channel": 4,
        "type": "noteOff",
        "noteNumber": 40,
        "velocity": 64
      },
      {
        "deltaTime": 54,
        "channel": 4,
        "type": "noteOn",
        "noteNumber": 42,
        "velocity": 127
      },
      {
        "deltaTime": 0,
        "channel": 4,
        "type": "noteOff",
        "noteNumber": 42,
        "velocity": 64
      },
      {
        "deltaTime": 0,
        "channel": 4,
        "type": "noteOn",
        "noteNumber": 40,
        "velocity": 127
      },
      {
        "deltaTime": 0,
        "channel": 4,
        "type": "noteOff",
        "noteNumber": 40,
        "velocity": 64
      },
      {
        "deltaTime": 60,
        "channel": 4,
        "type": "noteOn",
        "noteNumber": 42,
        "velocity": 127
      },
      {
        "deltaTime": 0,
        "channel": 4,
        "type": "noteOff",
        "noteNumber": 42,
        "velocity": 64
      },
      {
        "deltaTime": 24,
        "channel": 4,
        "type": "noteOn",
        "noteNumber": 38,
        "velocity": 127
      },
      {
        "deltaTime": 0,
        "channel": 4,
        "type": "noteOff",
        "noteNumber": 38,
        "velocity": 64
      },
      {
        "deltaTime": 24,
        "channel": 4,
        "type": "noteOn",
        "noteNumber": 41,
        "velocity": 127
      },
      {
        "deltaTime": 0,
        "channel": 4,
        "type": "noteOff",
        "noteNumber": 41,
        "velocity": 64
      },
      {
        "deltaTime": 24,
        "channel": 4,
        "type": "noteOn",
        "noteNumber": 37,
        "velocity": 127
      },
      {
        "deltaTime": 0,
        "channel": 4,
        "type": "noteOff",
        "noteNumber": 37,
        "velocity": 64
      },
      {
        "deltaTime": 12,
        "channel": 4,
        "type": "noteOn",
        "noteNumber": 40,
        "velocity": 127
      },
      {
        "deltaTime": 0,
        "channel": 4,
        "type": "noteOff",
        "noteNumber": 40,
        "velocity": 64
      },
      {
        "deltaTime": 24,
        "channel": 4,
        "type": "noteOn",
        "noteNumber": 36,
        "velocity": 127
      },
      {
        "deltaTime": 0,
        "channel": 4,
        "type": "noteOff",
        "noteNumber": 36,
        "velocity": 64
      },
      {
        "deltaTime": 36,
        "channel": 4,
        "type": "noteOn",
        "noteNumber": 36,
        "velocity": 127
      },
      {
        "deltaTime": 0,
        "channel": 4,
        "type": "noteOff",
        "noteNumber": 36,
        "velocity": 64
      },
      {
        "deltaTime": 48,
        "channel": 4,
        "type": "noteOn",
        "noteNumber": 39,
        "velocity": 127
      },
      {
        "deltaTime": 0,
        "channel": 4,
        "type": "noteOff",
        "noteNumber": 39,
        "velocity": 64
      },
      {
        "deltaTime": 72,
        "channel": 4,
        "type": "noteOn",
        "noteNumber": 39,
        "velocity": 127
      },
      {
        "deltaTime": 0,
        "channel": 4,
        "type": "noteOff",
        "noteNumber": 39,
        "velocity": 64
      },
      {
        "deltaTime": 0,
        "channel": 4,
        "type": "noteOn",
        "noteNumber": 39,
        "velocity": 127
      },
      {
        "deltaTime": 0,
        "channel": 4,
        "type": "noteOff",
        "noteNumber": 39,
        "velocity": 64
      },
      {
        "deltaTime": 312,
        "channel": 4,
        "type": "noteOn",
        "noteNumber": 42,
        "velocity": 127
      },
      {
        "deltaTime": 0,
        "channel": 4,
        "type": "noteOff",
        "noteNumber": 42,
        "velocity": 64
      },
      {
        "deltaTime": 48,
        "channel": 4,
        "type": "noteOn",
        "noteNumber": 38,
        "velocity": 127
      },
      {
        "deltaTime": 0,
        "channel": 4,
        "type": "noteOff",
        "noteNumber": 38,
        "velocity": 64
      },
      {
        "deltaTime": 48,
        "channel": 4,
        "type": "noteOn",
        "noteNumber": 41,
        "velocity": 127
      },
      {
        "deltaTime": 0,
        "channel": 4,
        "type": "noteOff",
        "noteNumber": 41,
        "velocity": 64
      },
      {
        "deltaTime": 48,
        "channel": 4,
        "type": "noteOn",
        "noteNumber": 37,
        "velocity": 127
      },
      {
        "deltaTime": 0,
        "channel": 4,
        "type": "noteOff",
        "noteNumber": 37,
        "velocity": 64
      },
      {
        "deltaTime": 0,
        "channel": 4,
        "type": "noteOn",
        "noteNumber": 37,
        "velocity": 127
      },
      {
        "deltaTime": 0,
        "channel": 4,
        "type": "noteOff",
        "noteNumber": 37,
        "velocity": 64
      },
      {
        "deltaTime": 132,
        "channel": 4,
        "type": "noteOn",
        "noteNumber": 40,
        "velocity": 127
      },
      {
        "deltaTime": 0,
        "channel": 4,
        "type": "noteOff",
        "noteNumber": 40,
        "velocity": 64
      },
      {
        "deltaTime": 0,
        "channel": 4,
        "type": "noteOn",
        "noteNumber": 36,
        "velocity": 127
      },
      {
        "deltaTime": 0,
        "channel": 4,
        "type": "noteOff",
        "noteNumber": 36,
        "velocity": 64
      },
      {
        "deltaTime": 300,
        "channel": 4,
        "type": "noteOn",
        "noteNumber": 40,
        "velocity": 127
      },
      {
        "deltaTime": 0,
        "channel": 4,
        "type": "noteOff",
        "noteNumber": 40,
        "velocity": 64
      },
      {
        "deltaTime": 0,
        "channel": 4,
        "type": "noteOn",
        "noteNumber": 42,
        "velocity": 127
      },
      {
        "deltaTime": 0,
        "channel": 4,
        "type": "noteOff",
        "noteNumber": 42,
        "velocity": 64
      },
      {
        "deltaTime": 48,
        "channel": 4,
        "type": "noteOn",
        "noteNumber": 38,
        "velocity": 127
      },
      {
        "deltaTime": 0,
        "channel": 4,
        "type": "noteOff",
        "noteNumber": 38,
        "velocity": 64
      },
      {
        "deltaTime": 0,
        "channel": 4,
        "type": "noteOn",
        "noteNumber": 36,
        "velocity": 127
      },
      {
        "deltaTime": 0,
        "channel": 4,
        "type": "noteOff",
        "noteNumber": 36,
        "velocity": 64
      },
      {
        "deltaTime": 48,
        "channel": 4,
        "type": "noteOn",
        "noteNumber": 41,
        "velocity": 127
      },
      {
        "deltaTime": 0,
        "channel": 4,
        "type": "noteOff",
        "noteNumber": 41,
        "velocity": 64
      },
      {
        "deltaTime": 0,
        "channel": 4,
        "type": "noteOn",
        "noteNumber": 39,
        "velocity": 127
      },
      {
        "deltaTime": 0,
        "channel": 4,
        "type": "noteOff",
        "noteNumber": 39,
        "velocity": 64
      },
      {
        "deltaTime": 240,
        "channel": 4,
        "type": "noteOn",
        "noteNumber": 41,
        "velocity": 127
      },
      {
        "deltaTime": 0,
        "channel": 4,
        "type": "noteOff",
        "noteNumber": 41,
        "velocity": 64
      },
      {
        "deltaTime": 0,
        "channel": 4,
        "type": "noteOn",
        "noteNumber": 39,
        "velocity": 127
      },
      {
        "deltaTime": 0,
        "channel": 4,
        "type": "noteOff",
        "noteNumber": 39,
        "velocity": 64
      },
      {
        "deltaTime": 48,
        "channel": 4,
        "type": "noteOn",
        "noteNumber": 38,
        "velocity": 127
      },
      {
        "deltaTime": 0,
        "channel": 4,
        "type": "noteOff",
        "noteNumber": 38,
        "velocity": 64
      },
      {
        "deltaTime": 0,
        "channel": 4,
        "type": "noteOn",
        "noteNumber": 36,
        "velocity": 127
      },
      {
        "deltaTime": 0,
        "channel": 4,
        "type": "noteOff",
        "noteNumber": 36,
        "velocity": 64
      },
      {
        "deltaTime": 48,
        "channel": 4,
        "type": "noteOn",
        "noteNumber": 42,
        "velocity": 127
      },
      {
        "deltaTime": 0,
        "channel": 4,
        "type": "noteOff",
        "noteNumber": 42,
        "velocity": 64
      },
      {
        "deltaTime": 0,
        "channel": 4,
        "type": "noteOn",
        "noteNumber": 40,
        "velocity": 127
      },
      {
        "deltaTime": 0,
        "channel": 4,
        "type": "noteOff",
        "noteNumber": 40,
        "velocity": 64
      },
      {
        "deltaTime": 48,
        "channel": 4,
        "type": "noteOn",
        "noteNumber": 39,
        "velocity": 127
      },
      {
        "deltaTime": 0,
        "channel": 4,
        "type": "noteOff",
        "noteNumber": 39,
        "velocity": 64
      },
      {
        "deltaTime": 0,
        "channel": 4,
        "type": "noteOn",
        "noteNumber": 37,
        "velocity": 127
      },
      {
        "deltaTime": 0,
        "channel": 4,
        "type": "noteOff",
        "noteNumber": 37,
        "velocity": 64
      },
      {
        "deltaTime": 240,
        "channel": 4,
        "type": "noteOn",
        "noteNumber": 39,
        "velocity": 127
      },
      {
        "deltaTime": 0,
        "channel": 4,
        "type": "noteOff",
        "noteNumber": 39,
        "velocity": 64
      },
      {
        "deltaTime": 0,
        "channel": 4,
        "type": "noteOn",
        "noteNumber": 37,
        "velocity": 127
      },
      {
        "deltaTime": 0,
        "channel": 4,
        "type": "noteOff",
        "noteNumber": 37,
        "velocity": 64
      },
      {
        "deltaTime": 576,
        "channel": 4,
        "type": "noteOn",
        "noteNumber": 42,
        "velocity": 127
      },
      {
        "deltaTime": 0,
        "channel": 4,
        "type": "noteOff",
        "noteNumber": 42,
        "velocity": 64
      },
      {
        "deltaTime": 0,
        "channel": 4,
        "type": "noteOn",
        "noteNumber": 36,
        "velocity": 127
      },
      {
        "deltaTime": 0,
        "channel": 4,
        "type": "noteOff",
        "noteNumber": 36,
        "velocity": 64
      },
      {
        "deltaTime": 48,
        "channel": 4,
        "type": "noteOn",
        "noteNumber": 36,
        "velocity": 127
      },
      {
        "deltaTime": 0,
        "channel": 4,
        "type": "noteOff",
        "noteNumber": 36,
        "velocity": 64
      },
      {
        "deltaTime": 72,
        "channel": 4,
        "type": "noteOn",
        "noteNumber": 37,
        "velocity": 127
      },
      {
        "deltaTime": 0,
        "channel": 4,
        "type": "noteOff",
        "noteNumber": 37,
        "velocity": 64
      },
      {
        "deltaTime": 72,
        "channel": 4,
        "type": "noteOn",
        "noteNumber": 38,
        "velocity": 127
      },
      {
        "deltaTime": 0,
        "channel": 4,
        "type": "noteOff",
        "noteNumber": 38,
        "velocity": 64
      },
      {
        "deltaTime": 96,
        "channel": 4,
        "type": "noteOn",
        "noteNumber": 37,
        "velocity": 127
      },
      {
        "deltaTime": 0,
        "channel": 4,
        "type": "noteOff",
        "noteNumber": 37,
        "velocity": 64
      },
      {
        "deltaTime": 0,
        "channel": 4,
        "type": "noteOn",
        "noteNumber": 41,
        "velocity": 127
      },
      {
        "deltaTime": 0,
        "channel": 4,
        "type": "noteOff",
        "noteNumber": 41,
        "velocity": 64
      },
      {
        "deltaTime": 48,
        "channel": 4,
        "type": "noteOn",
        "noteNumber": 37,
        "velocity": 127
      },
      {
        "deltaTime": 0,
        "channel": 4,
        "type": "noteOff",
        "noteNumber": 37,
        "velocity": 64
      },
      {
        "deltaTime": 0,
        "channel": 4,
        "type": "noteOn",
        "noteNumber": 41,
        "velocity": 127
      },
      {
        "deltaTime": 0,
        "channel": 4,
        "type": "noteOff",
        "noteNumber": 41,
        "velocity": 64
      },
      {
        "deltaTime": 72,
        "channel": 4,
        "type": "noteOn",
        "noteNumber": 42,
        "velocity": 127
      },
      {
        "deltaTime": 0,
        "channel": 4,
        "type": "noteOff",
        "noteNumber": 42,
        "velocity": 64
      },
      {
        "deltaTime": 24,
        "channel": 4,
        "type": "noteOn",
        "noteNumber": 39,
        "velocity": 127
      },
      {
        "deltaTime": 0,
        "channel": 4,
        "type": "noteOff",
        "noteNumber": 39,
        "velocity": 64
      },
      {
        "deltaTime": 24,
        "channel": 4,
        "type": "noteOn",
        "noteNumber": 42,
        "velocity": 127
      },
      {
        "deltaTime": 0,
        "channel": 4,
        "type": "noteOff",
        "noteNumber": 42,
        "velocity": 64
      },
      {
        "deltaTime": 24,
        "channel": 4,
        "type": "noteOn",
        "noteNumber": 39,
        "velocity": 127
      },
      {
        "deltaTime": 0,
        "channel": 4,
        "type": "noteOff",
        "noteNumber": 39,
        "velocity": 64
      },
      {
        "deltaTime": 72,
        "channel": 4,
        "type": "noteOn",
        "noteNumber": 36,
        "velocity": 127
      },
      {
        "deltaTime": 0,
        "channel": 4,
        "type": "noteOff",
        "noteNumber": 36,
        "velocity": 64
      },
      {
        "deltaTime": 24,
        "channel": 4,
        "type": "noteOn",
        "noteNumber": 39,
        "velocity": 127
      },
      {
        "deltaTime": 0,
        "channel": 4,
        "type": "noteOff",
        "noteNumber": 39,
        "velocity": 64
      },
      {
        "deltaTime": 24,
        "channel": 4,
        "type": "noteOn",
        "noteNumber": 36,
        "velocity": 127
      },
      {
        "deltaTime": 0,
        "channel": 4,
        "type": "noteOff",
        "noteNumber": 36,
        "velocity": 64
      },
      {
        "deltaTime": 24,
        "channel": 4,
        "type": "noteOn",
        "noteNumber": 39,
        "velocity": 127
      },
      {
        "deltaTime": 0,
        "channel": 4,
        "type": "noteOff",
        "noteNumber": 39,
        "velocity": 64
      },
      {
        "deltaTime": 72,
        "channel": 4,
        "type": "noteOn",
        "noteNumber": 37,
        "velocity": 127
      },
      {
        "deltaTime": 0,
        "channel": 4,
        "type": "noteOff",
        "noteNumber": 37,
        "velocity": 64
      },
      {
        "deltaTime": 0,
        "channel": 4,
        "type": "noteOn",
        "noteNumber": 41,
        "velocity": 127
      },
      {
        "deltaTime": 0,
        "channel": 4,
        "type": "noteOff",
        "noteNumber": 41,
        "velocity": 64
      },
      {
        "deltaTime": 48,
        "channel": 4,
        "type": "noteOn",
        "noteNumber": 36,
        "velocity": 127
      },
      {
        "deltaTime": 0,
        "channel": 4,
        "type": "noteOff",
        "noteNumber": 36,
        "velocity": 64
      },
      {
        "deltaTime": 0,
        "channel": 4,
        "type": "noteOn",
        "noteNumber": 42,
        "velocity": 127
      },
      {
        "deltaTime": 0,
        "channel": 4,
        "type": "noteOff",
        "noteNumber": 42,
        "velocity": 64
      },
      {
        "deltaTime": 48,
        "channel": 4,
        "type": "noteOn",
        "noteNumber": 41,
        "velocity": 127
      },
      {
        "deltaTime": 0,
        "channel": 4,
        "type": "noteOff",
        "noteNumber": 41,
        "velocity": 64
      },
      {
        "deltaTime": 24,
        "channel": 4,
        "type": "noteOn",
        "noteNumber": 38,
        "velocity": 127
      },
      {
        "deltaTime": 0,
        "channel": 4,
        "type": "noteOff",
        "noteNumber": 38,
        "velocity": 64
      },
      {
        "deltaTime": 24,
        "channel": 4,
        "type": "noteOn",
        "noteNumber": 41,
        "velocity": 127
      },
      {
        "deltaTime": 0,
        "channel": 4,
        "type": "noteOff",
        "noteNumber": 41,
        "velocity": 64
      },
      {
        "deltaTime": 24,
        "channel": 4,
        "type": "noteOn",
        "noteNumber": 38,
        "velocity": 127
      },
      {
        "deltaTime": 0,
        "channel": 4,
        "type": "noteOff",
        "noteNumber": 38,
        "velocity": 64
      },
      {
        "deltaTime": 72,
        "channel": 4,
        "type": "noteOn",
        "noteNumber": 37,
        "velocity": 127
      },
      {
        "deltaTime": 0,
        "channel": 4,
        "type": "noteOff",
        "noteNumber": 37,
        "velocity": 64
      },
      {
        "deltaTime": 24,
        "channel": 4,
        "type": "noteOn",
        "noteNumber": 37,
        "velocity": 127
      },
      {
        "deltaTime": 0,
        "channel": 4,
        "type": "noteOff",
        "noteNumber": 37,
        "velocity": 64
      },
      {
        "deltaTime": 216,
        "channel": 4,
        "type": "noteOn",
        "noteNumber": 36,
        "velocity": 127
      },
      {
        "deltaTime": 0,
        "channel": 4,
        "type": "noteOff",
        "noteNumber": 36,
        "velocity": 64
      },
      {
        "deltaTime": 24,
        "channel": 4,
        "type": "noteOn",
        "noteNumber": 39,
        "velocity": 127
      },
      {
        "deltaTime": 0,
        "channel": 4,
        "type": "noteOff",
        "noteNumber": 39,
        "velocity": 64
      },
      {
        "deltaTime": 24,
        "channel": 4,
        "type": "noteOn",
        "noteNumber": 36,
        "velocity": 127
      },
      {
        "deltaTime": 0,
        "channel": 4,
        "type": "noteOff",
        "noteNumber": 36,
        "velocity": 64
      },
      {
        "deltaTime": 24,
        "channel": 4,
        "type": "noteOn",
        "noteNumber": 39,
        "velocity": 127
      },
      {
        "deltaTime": 0,
        "channel": 4,
        "type": "noteOff",
        "noteNumber": 39,
        "velocity": 64
      },
      {
        "deltaTime": 72,
        "channel": 4,
        "type": "noteOn",
        "noteNumber": 42,
        "velocity": 127
      },
      {
        "deltaTime": 0,
        "channel": 4,
        "type": "noteOff",
        "noteNumber": 42,
        "velocity": 64
      },
      {
        "deltaTime": 24,
        "channel": 4,
        "type": "noteOn",
        "noteNumber": 39,
        "velocity": 127
      },
      {
        "deltaTime": 0,
        "channel": 4,
        "type": "noteOff",
        "noteNumber": 39,
        "velocity": 64
      },
      {
        "deltaTime": 24,
        "channel": 4,
        "type": "noteOn",
        "noteNumber": 42,
        "velocity": 127
      },
      {
        "deltaTime": 0,
        "channel": 4,
        "type": "noteOff",
        "noteNumber": 42,
        "velocity": 64
      },
      {
        "deltaTime": 24,
        "channel": 4,
        "type": "noteOn",
        "noteNumber": 39,
        "velocity": 127
      },
      {
        "deltaTime": 0,
        "channel": 4,
        "type": "noteOff",
        "noteNumber": 39,
        "velocity": 64
      },
      {
        "deltaTime": 48,
        "channel": 4,
        "type": "noteOn",
        "noteNumber": 41,
        "velocity": 127
      },
      {
        "deltaTime": 0,
        "channel": 4,
        "type": "noteOff",
        "noteNumber": 41,
        "velocity": 64
      },
      {
        "deltaTime": 0,
        "channel": 4,
        "type": "noteOn",
        "noteNumber": 37,
        "velocity": 127
      },
      {
        "deltaTime": 0,
        "channel": 4,
        "type": "noteOff",
        "noteNumber": 37,
        "velocity": 64
      },
      {
        "deltaTime": 48,
        "channel": 4,
        "type": "noteOn",
        "noteNumber": 41,
        "velocity": 127
      },
      {
        "deltaTime": 0,
        "channel": 4,
        "type": "noteOff",
        "noteNumber": 41,
        "velocity": 64
      },
      {
        "deltaTime": 0,
        "channel": 4,
        "type": "noteOn",
        "noteNumber": 37,
        "velocity": 127
      },
      {
        "deltaTime": 0,
        "channel": 4,
        "type": "noteOff",
        "noteNumber": 37,
        "velocity": 64
      },
      {
        "deltaTime": 0,
        "meta": true,
        "type": "endOfTrack"
      }
    ],
    [
      {
        "deltaTime": 0,
        "meta": true,
        "type": "trackName",
        "text": "Empty 9"
      },
      {
        "deltaTime": 384,
        "channel": 8,
        "type": "noteOn",
        "noteNumber": 39,
        "velocity": 96
      },
      {
        "deltaTime": 0,
        "channel": 8,
        "type": "noteOff",
        "noteNumber": 39,
        "velocity": 64
      },
      {
        "deltaTime": 0,
        "channel": 8,
        "type": "noteOn",
        "noteNumber": 41,
        "velocity": 96
      },
      {
        "deltaTime": 0,
        "channel": 8,
        "type": "noteOff",
        "noteNumber": 41,
        "velocity": 64
      },
      {
        "deltaTime": 180,
        "channel": 8,
        "type": "noteOn",
        "noteNumber": 39,
        "velocity": 96
      },
      {
        "deltaTime": 0,
        "channel": 8,
        "type": "noteOff",
        "noteNumber": 39,
        "velocity": 64
      },
      {
        "deltaTime": 0,
        "channel": 8,
        "type": "noteOn",
        "noteNumber": 37,
        "velocity": 96
      },
      {
        "deltaTime": 0,
        "channel": 8,
        "type": "noteOff",
        "noteNumber": 37,
        "velocity": 64
      },
      {
        "deltaTime": 204,
        "channel": 8,
        "type": "noteOn",
        "noteNumber": 38,
        "velocity": 96
      },
      {
        "deltaTime": 0,
        "channel": 8,
        "type": "noteOff",
        "noteNumber": 38,
        "velocity": 64
      },
      {
        "deltaTime": 0,
        "channel": 8,
        "type": "noteOn",
        "noteNumber": 40,
        "velocity": 96
      },
      {
        "deltaTime": 0,
        "channel": 8,
        "type": "noteOff",
        "noteNumber": 40,
        "velocity": 64
      },
      {
        "deltaTime": 72,
        "channel": 8,
        "type": "noteOn",
        "noteNumber": 41,
        "velocity": 98
      },
      {
        "deltaTime": 0,
        "channel": 8,
        "type": "noteOff",
        "noteNumber": 41,
        "velocity": 64
      },
      {
        "deltaTime": 0,
        "channel": 8,
        "type": "noteOn",
        "noteNumber": 37,
        "velocity": 98
      },
      {
        "deltaTime": 0,
        "channel": 8,
        "type": "noteOff",
        "noteNumber": 37,
        "velocity": 64
      },
      {
        "deltaTime": 72,
        "channel": 8,
        "type": "noteOn",
        "noteNumber": 41,
        "velocity": 96
      },
      {
        "deltaTime": 0,
        "channel": 8,
        "type": "noteOff",
        "noteNumber": 41,
        "velocity": 64
      },
      {
        "deltaTime": 0,
        "channel": 8,
        "type": "noteOn",
        "noteNumber": 37,
        "velocity": 96
      },
      {
        "deltaTime": 0,
        "channel": 8,
        "type": "noteOff",
        "noteNumber": 37,
        "velocity": 64
      },
      {
        "deltaTime": 696,
        "channel": 8,
        "type": "noteOn",
        "noteNumber": 42,
        "velocity": 96
      },
      {
        "deltaTime": 0,
        "channel": 8,
        "type": "noteOff",
        "noteNumber": 42,
        "velocity": 64
      },
      {
        "deltaTime": 72,
        "channel": 8,
        "type": "noteOn",
        "noteNumber": 42,
        "velocity": 96
      },
      {
        "deltaTime": 0,
        "channel": 8,
        "type": "noteOff",
        "noteNumber": 42,
        "velocity": 64
      },
      {
        "deltaTime": 0,
        "channel": 8,
        "type": "noteOn",
        "noteNumber": 36,
        "velocity": 96
      },
      {
        "deltaTime": 0,
        "channel": 8,
        "type": "noteOff",
        "noteNumber": 36,
        "velocity": 64
      },
      {
        "deltaTime": 144,
        "channel": 8,
        "type": "noteOn",
        "noteNumber": 42,
        "velocity": 96
      },
      {
        "deltaTime": 0,
        "channel": 8,
        "type": "noteOff",
        "noteNumber": 42,
        "velocity": 64
      },
      {
        "deltaTime": 48,
        "channel": 8,
        "type": "noteOn",
        "noteNumber": 36,
        "velocity": 96
      },
      {
        "deltaTime": 0,
        "channel": 8,
        "type": "noteOff",
        "noteNumber": 36,
        "velocity": 64
      },
      {
        "deltaTime": 0,
        "channel": 8,
        "type": "noteOn",
        "noteNumber": 42,
        "velocity": 96
      },
      {
        "deltaTime": 0,
        "channel": 8,
        "type": "noteOff",
        "noteNumber": 42,
        "velocity": 64
      },
      {
        "deltaTime": 432,
        "channel": 8,
        "type": "noteOn",
        "noteNumber": 40,
        "velocity": 96
      },
      {
        "deltaTime": 0,
        "channel": 8,
        "type": "noteOff",
        "noteNumber": 40,
        "velocity": 64
      },
      {
        "deltaTime": 0,
        "channel": 8,
        "type": "noteOn",
        "noteNumber": 36,
        "velocity": 96
      },
      {
        "deltaTime": 0,
        "channel": 8,
        "type": "noteOff",
        "noteNumber": 36,
        "velocity": 64
      },
      {
        "deltaTime": 72,
        "channel": 8,
        "type": "noteOn",
        "noteNumber": 41,
        "velocity": 96
      },
      {
        "deltaTime": 0,
        "channel": 8,
        "type": "noteOff",
        "noteNumber": 41,
        "velocity": 64
      },
      {
        "deltaTime": 0,
        "channel": 8,
        "type": "noteOn",
        "noteNumber": 37,
        "velocity": 96
      },
      {
        "deltaTime": 0,
        "channel": 8,
        "type": "noteOff",
        "noteNumber": 37,
        "velocity": 64
      },
      {
        "deltaTime": 72,
        "channel": 8,
        "type": "noteOn",
        "noteNumber": 42,
        "velocity": 96
      },
      {
        "deltaTime": 0,
        "channel": 8,
        "type": "noteOff",
        "noteNumber": 42,
        "velocity": 64
      },
      {
        "deltaTime": 0,
        "channel": 8,
        "type": "noteOn",
        "noteNumber": 38,
        "velocity": 96
      },
      {
        "deltaTime": 0,
        "channel": 8,
        "type": "noteOff",
        "noteNumber": 38,
        "velocity": 64
      },
      {
        "deltaTime": 1008,
        "channel": 8,
        "type": "noteOn",
        "noteNumber": 38,
        "velocity": 96
      },
      {
        "deltaTime": 0,
        "channel": 8,
        "type": "noteOff",
        "noteNumber": 38,
        "velocity": 64
      },
      {
        "deltaTime": 0,
        "channel": 8,
        "type": "noteOn",
        "noteNumber": 40,
        "velocity": 96
      },
      {
        "deltaTime": 0,
        "channel": 8,
        "type": "noteOff",
        "noteNumber": 40,
        "velocity": 64
      },
      {
        "deltaTime": 456,
        "channel": 8,
        "type": "noteOn",
        "noteNumber": 40,
        "velocity": 96
      },
      {
        "deltaTime": 0,
        "channel": 8,
        "type": "noteOff",
        "noteNumber": 40,
        "velocity": 64
      },
      {
        "deltaTime": 72,
        "channel": 8,
        "type": "noteOn",
        "noteNumber": 41,
        "velocity": 96
      },
      {
        "deltaTime": 0,
        "channel": 8,
        "type": "noteOff",
        "noteNumber": 41,
        "velocity": 64
      },
      {
        "deltaTime": 72,
        "channel": 8,
        "type": "noteOn",
        "noteNumber": 42,
        "velocity": 96
      },
      {
        "deltaTime": 0,
        "channel": 8,
        "type": "noteOff",
        "noteNumber": 42,
        "velocity": 64
      },
      {
        "deltaTime": 264,
        "channel": 8,
        "type": "noteOn",
        "noteNumber": 42,
        "velocity": 96
      },
      {
        "deltaTime": 0,
        "channel": 8,
        "type": "noteOff",
        "noteNumber": 42,
        "velocity": 64
      },
      {
        "deltaTime": 144,
        "channel": 8,
        "type": "noteOn",
        "noteNumber": 36,
        "velocity": 96
      },
      {
        "deltaTime": 0,
        "channel": 8,
        "type": "noteOff",
        "noteNumber": 36,
        "velocity": 64
      },
      {
        "deltaTime": 240,
        "channel": 8,
        "type": "noteOn",
        "noteNumber": 41,
        "velocity": 96
      },
      {
        "deltaTime": 0,
        "channel": 8,
        "type": "noteOff",
        "noteNumber": 41,
        "velocity": 64
      },
      {
        "deltaTime": 144,
        "channel": 8,
        "type": "noteOn",
        "noteNumber": 37,
        "velocity": 96
      },
      {
        "deltaTime": 0,
        "channel": 8,
        "type": "noteOff",
        "noteNumber": 37,
        "velocity": 64
      },
      {
        "deltaTime": 0,
        "channel": 8,
        "type": "noteOn",
        "noteNumber": 41,
        "velocity": 96
      },
      {
        "deltaTime": 0,
        "channel": 8,
        "type": "noteOff",
        "noteNumber": 41,
        "velocity": 64
      },
      {
        "deltaTime": 48,
        "channel": 8,
        "type": "noteOn",
        "noteNumber": 42,
        "velocity": 96
      },
      {
        "deltaTime": 0,
        "channel": 8,
        "type": "noteOff",
        "noteNumber": 42,
        "velocity": 64
      },
      {
        "deltaTime": 0,
        "channel": 8,
        "type": "noteOn",
        "noteNumber": 36,
        "velocity": 96
      },
      {
        "deltaTime": 0,
        "channel": 8,
        "type": "noteOff",
        "noteNumber": 36,
        "velocity": 64
      },
      {
        "deltaTime": 192,
        "channel": 8,
        "type": "noteOn",
        "noteNumber": 36,
        "velocity": 96
      },
      {
        "deltaTime": 0,
        "channel": 8,
        "type": "noteOff",
        "noteNumber": 36,
        "velocity": 64
      },
      {
        "deltaTime": 144,
        "channel": 8,
        "type": "noteOn",
        "noteNumber": 42,
        "velocity": 96
      },
      {
        "deltaTime": 0,
        "channel": 8,
        "type": "noteOff",
        "noteNumber": 42,
        "velocity": 64
      },
      {
        "deltaTime": 144,
        "channel": 8,
        "type": "noteOn",
        "noteNumber": 37,
        "velocity": 96
      },
      {
        "deltaTime": 0,
        "channel": 8,
        "type": "noteOff",
        "noteNumber": 37,
        "velocity": 64
      },
      {
        "deltaTime": 0,
        "channel": 8,
        "type": "noteOn",
        "noteNumber": 41,
        "velocity": 96
      },
      {
        "deltaTime": 0,
        "channel": 8,
        "type": "noteOff",
        "noteNumber": 41,
        "velocity": 64
      },
      {
        "deltaTime": 72,
        "channel": 8,
        "type": "noteOn",
        "noteNumber": 42,
        "velocity": 98
      },
      {
        "deltaTime": 0,
        "channel": 8,
        "type": "noteOff",
        "noteNumber": 42,
        "velocity": 64
      },
      {
        "deltaTime": 0,
        "channel": 8,
        "type": "noteOn",
        "noteNumber": 36,
        "velocity": 98
      },
      {
        "deltaTime": 0,
        "channel": 8,
        "type": "noteOff",
        "noteNumber": 36,
        "velocity": 64
      },
      {
        "deltaTime": 72,
        "channel": 8,
        "type": "noteOn",
        "noteNumber": 42,
        "velocity": 96
      },
      {
        "deltaTime": 0,
        "channel": 8,
        "type": "noteOff",
        "noteNumber": 42,
        "velocity": 64
      },
      {
        "deltaTime": 0,
        "channel": 8,
        "type": "noteOn",
        "noteNumber": 36,
        "velocity": 96
      },
      {
        "deltaTime": 0,
        "channel": 8,
        "type": "noteOff",
        "noteNumber": 36,
        "velocity": 64
      },
      {
        "deltaTime": 0,
        "meta": true,
        "type": "endOfTrack"
      }
    ],
    [
      {
        "deltaTime": 0,
        "meta": true,
        "type": "trackName",
        "text": "Empty 1"
      },
      {
        "deltaTime": 480,
        "channel": 0,
        "type": "noteOn",
        "noteNumber": 39,
        "velocity": 127
      },
      {
        "deltaTime": 0,
        "channel": 0,
        "type": "noteOn",
        "noteNumber": 37,
        "velocity": 127
      },
      {
        "deltaTime": 24,
        "channel": 0,
        "type": "noteOff",
        "noteNumber": 39,
        "velocity": 64
      },
      {
        "deltaTime": 0,
        "channel": 0,
        "type": "noteOff",
        "noteNumber": 37,
        "velocity": 64
      },
      {
        "deltaTime": 168,
        "channel": 0,
        "type": "noteOn",
        "noteNumber": 38,
        "velocity": 127
      },
      {
        "deltaTime": 0,
        "channel": 0,
        "type": "noteOn",
        "noteNumber": 40,
        "velocity": 127
      },
      {
        "deltaTime": 48,
        "channel": 0,
        "type": "noteOff",
        "noteNumber": 38,
        "velocity": 64
      },
      {
        "deltaTime": 0,
        "channel": 0,
        "type": "noteOff",
        "noteNumber": 40,
        "velocity": 64
      },
      {
        "deltaTime": 0,
        "channel": 0,
        "type": "noteOn",
        "noteNumber": 38,
        "velocity": 127
      },
      {
        "deltaTime": 0,
        "channel": 0,
        "type": "noteOn",
        "noteNumber": 40,
        "velocity": 127
      },
      {
        "deltaTime": 48,
        "channel": 0,
        "type": "noteOff",
        "noteNumber": 38,
        "velocity": 64
      },
      {
        "deltaTime": 0,
        "channel": 0,
        "type": "noteOff",
        "noteNumber": 40,
        "velocity": 64
      },
      {
        "deltaTime": 36,
        "channel": 0,
        "type": "noteOn",
        "noteNumber": 40,
        "velocity": 127
      },
      {
        "deltaTime": 36,
        "channel": 0,
        "type": "noteOff",
        "noteNumber": 40,
        "velocity": 64
      },
      {
        "deltaTime": 36,
        "channel": 0,
        "type": "noteOn",
        "noteNumber": 38,
        "velocity": 127
      },
      {
        "deltaTime": 36,
        "channel": 0,
        "type": "noteOff",
        "noteNumber": 38,
        "velocity": 64
      },
      {
        "deltaTime": 96,
        "channel": 0,
        "type": "noteOn",
        "noteNumber": 42,
        "velocity": 127
      },
      {
        "deltaTime": 0,
        "channel": 0,
        "type": "noteOn",
        "noteNumber": 40,
        "velocity": 127
      },
      {
        "deltaTime": 24,
        "channel": 0,
        "type": "noteOff",
        "noteNumber": 42,
        "velocity": 64
      },
      {
        "deltaTime": 0,
        "channel": 0,
        "type": "noteOff",
        "noteNumber": 40,
        "velocity": 64
      },
      {
        "deltaTime": 30,
        "channel": 0,
        "type": "noteOn",
        "noteNumber": 40,
        "velocity": 127
      },
      {
        "deltaTime": 0,
        "channel": 0,
        "type": "noteOn",
        "noteNumber": 38,
        "velocity": 127
      },
      {
        "deltaTime": 24,
        "channel": 0,
        "type": "noteOff",
        "noteNumber": 40,
        "velocity": 64
      },
      {
        "deltaTime": 0,
        "channel": 0,
        "type": "noteOff",
        "noteNumber": 38,
        "velocity": 64
      },
      {
        "deltaTime": 30,
        "channel": 0,
        "type": "noteOn",
        "noteNumber": 38,
        "velocity": 127
      },
      {
        "deltaTime": 0,
        "channel": 0,
        "type": "noteOn",
        "noteNumber": 36,
        "velocity": 127
      },
      {
        "deltaTime": 24,
        "channel": 0,
        "type": "noteOff",
        "noteNumber": 38,
        "velocity": 64
      },
      {
        "deltaTime": 0,
        "channel": 0,
        "type": "noteOff",
        "noteNumber": 36,
        "velocity": 64
      },
      {
        "deltaTime": 60,
        "channel": 0,
        "type": "noteOn",
        "noteNumber": 38,
        "velocity": 127
      },
      {
        "deltaTime": 0,
        "channel": 0,
        "type": "noteOn",
        "noteNumber": 36,
        "velocity": 127
      },
      {
        "deltaTime": 24,
        "channel": 0,
        "type": "noteOff",
        "noteNumber": 38,
        "velocity": 64
      },
      {
        "deltaTime": 0,
        "channel": 0,
        "type": "noteOff",
        "noteNumber": 36,
        "velocity": 64
      },
      {
        "deltaTime": 30,
        "channel": 0,
        "type": "noteOn",
        "noteNumber": 40,
        "velocity": 127
      },
      {
        "deltaTime": 0,
        "channel": 0,
        "type": "noteOn",
        "noteNumber": 38,
        "velocity": 127
      },
      {
        "deltaTime": 24,
        "channel": 0,
        "type": "noteOff",
        "noteNumber": 40,
        "velocity": 64
      },
      {
        "deltaTime": 0,
        "channel": 0,
        "type": "noteOff",
        "noteNumber": 38,
        "velocity": 64
      },
      {
        "deltaTime": 30,
        "channel": 0,
        "type": "noteOn",
        "noteNumber": 42,
        "velocity": 127
      },
      {
        "deltaTime": 0,
        "channel": 0,
        "type": "noteOn",
        "noteNumber": 40,
        "velocity": 127
      },
      {
        "deltaTime": 24,
        "channel": 0,
        "type": "noteOff",
        "noteNumber": 42,
        "velocity": 64
      },
      {
        "deltaTime": 0,
        "channel": 0,
        "type": "noteOff",
        "noteNumber": 40,
        "velocity": 64
      },
      {
        "deltaTime": 204,
        "channel": 0,
        "type": "noteOn",
        "noteNumber": 42,
        "velocity": 127
      },
      {
        "deltaTime": 72,
        "channel": 0,
        "type": "noteOff",
        "noteNumber": 42,
        "velocity": 64
      },
      {
        "deltaTime": 0,
        "channel": 0,
        "type": "noteOn",
        "noteNumber": 36,
        "velocity": 127
      },
      {
        "deltaTime": 72,
        "channel": 0,
        "type": "noteOff",
        "noteNumber": 36,
        "velocity": 64
      },
      {
        "deltaTime": 24,
        "channel": 0,
        "type": "noteOn",
        "noteNumber": 39,
        "velocity": 127
      },
      {
        "deltaTime": 12,
        "channel": 0,
        "type": "noteOff",
        "noteNumber": 39,
        "velocity": 64
      },
      {
        "deltaTime": 0,
        "channel": 0,
        "type": "noteOn",
        "noteNumber": 38,
        "velocity": 127
      },
      {
        "deltaTime": 12,
        "channel": 0,
        "type": "noteOff",
        "noteNumber": 38,
        "velocity": 64
      },
      {
        "deltaTime": 0,
        "channel": 0,
        "type": "noteOn",
        "noteNumber": 37,
        "velocity": 127
      },
      {
        "deltaTime": 12,
        "channel": 0,
        "type": "noteOff",
        "noteNumber": 37,
        "velocity": 64
      },
      {
        "deltaTime": 0,
        "channel": 0,
        "type": "noteOn",
        "noteNumber": 36,
        "velocity": 127
      },
      {
        "deltaTime": 12,
        "channel": 0,
        "type": "noteOff",
        "noteNumber": 36,
        "velocity": 64
      },
      {
        "deltaTime": 0,
        "channel": 0,
        "type": "noteOn",
        "noteNumber": 37,
        "velocity": 127
      },
      {
        "deltaTime": 12,
        "channel": 0,
        "type": "noteOff",
        "noteNumber": 37,
        "velocity": 64
      },
      {
        "deltaTime": 0,
        "channel": 0,
        "type": "noteOn",
        "noteNumber": 38,
        "velocity": 127
      },
      {
        "deltaTime": 12,
        "channel": 0,
        "type": "noteOff",
        "noteNumber": 38,
        "velocity": 64
      },
      {
        "deltaTime": 0,
        "channel": 0,
        "type": "noteOn",
        "noteNumber": 39,
        "velocity": 127
      },
      {
        "deltaTime": 12,
        "channel": 0,
        "type": "noteOff",
        "noteNumber": 39,
        "velocity": 64
      },
      {
        "deltaTime": 0,
        "channel": 0,
        "type": "noteOn",
        "noteNumber": 40,
        "velocity": 127
      },
      {
        "deltaTime": 12,
        "channel": 0,
        "type": "noteOff",
        "noteNumber": 40,
        "velocity": 64
      },
      {
        "deltaTime": 0,
        "channel": 0,
        "type": "noteOn",
        "noteNumber": 41,
        "velocity": 127
      },
      {
        "deltaTime": 12,
        "channel": 0,
        "type": "noteOff",
        "noteNumber": 41,
        "velocity": 64
      },
      {
        "deltaTime": 0,
        "channel": 0,
        "type": "noteOn",
        "noteNumber": 42,
        "velocity": 127
      },
      {
        "deltaTime": 12,
        "channel": 0,
        "type": "noteOff",
        "noteNumber": 42,
        "velocity": 64
      },
      {
        "deltaTime": 96,
        "channel": 0,
        "type": "noteOn",
        "noteNumber": 42,
        "velocity": 127
      },
      {
        "deltaTime": 48,
        "channel": 0,
        "type": "noteOff",
        "noteNumber": 42,
        "velocity": 64
      },
      {
        "deltaTime": 0,
        "channel": 0,
        "type": "noteOn",
        "noteNumber": 38,
        "velocity": 127
      },
      {
        "deltaTime": 48,
        "channel": 0,
        "type": "noteOff",
        "noteNumber": 38,
        "velocity": 64
      },
      {
        "deltaTime": 0,
        "channel": 0,
        "type": "noteOn",
        "noteNumber": 41,
        "velocity": 127
      },
      {
        "deltaTime": 48,
        "channel": 0,
        "type": "noteOff",
        "noteNumber": 41,
        "velocity": 64
      },
      {
        "deltaTime": 0,
        "channel": 0,
        "type": "noteOn",
        "noteNumber": 37,
        "velocity": 127
      },
      {
        "deltaTime": 48,
        "channel": 0,
        "type": "noteOff",
        "noteNumber": 37,
        "velocity": 64
      },
      {
        "deltaTime": 0,
        "channel": 0,
        "type": "noteOn",
        "noteNumber": 40,
        "velocity": 127
      },
      {
        "deltaTime": 24,
        "channel": 0,
        "type": "noteOn",
        "noteNumber": 36,
        "velocity": 127
      },
      {
        "deltaTime": 48,
        "channel": 0,
        "type": "noteOff",
        "noteNumber": 40,
        "velocity": 64
      },
      {
        "deltaTime": 0,
        "channel": 0,
        "type": "noteOff",
        "noteNumber": 36,
        "velocity": 64
      },
      {
        "deltaTime": 0,
        "channel": 0,
        "type": "noteOn",
        "noteNumber": 42,
        "velocity": 127
      },
      {
        "deltaTime": 0,
        "channel": 0,
        "type": "noteOn",
        "noteNumber": 38,
        "velocity": 127
      },
      {
        "deltaTime": 60,
        "channel": 0,
        "type": "noteOff",
        "noteNumber": 42,
        "velocity": 64
      },
      {
        "deltaTime": 0,
        "channel": 0,
        "type": "noteOff",
        "noteNumber": 38,
        "velocity": 64
      },
      {
        "deltaTime": 108,
        "channel": 0,
        "type": "noteOn",
        "noteNumber": 37,
        "velocity": 127
      },
      {
        "deltaTime": 24,
        "channel": 0,
        "type": "noteOff",
        "noteNumber": 37,
        "velocity": 64
      },
      {
        "deltaTime": 48,
        "channel": 0,
        "type": "noteOn",
        "noteNumber": 38,
        "velocity": 127
      },
      {
        "deltaTime": 24,
        "channel": 0,
        "type": "noteOff",
        "noteNumber": 38,
        "velocity": 64
      },
      {
        "deltaTime": 288,
        "channel": 0,
        "type": "noteOn",
        "noteNumber": 42,
        "velocity": 127
      },
      {
        "deltaTime": 0,
        "channel": 0,
        "type": "noteOn",
        "noteNumber": 40,
        "velocity": 127
      },
      {
        "deltaTime": 48,
        "channel": 0,
        "type": "noteOff",
        "noteNumber": 42,
        "velocity": 64
      },
      {
        "deltaTime": 0,
        "channel": 0,
        "type": "noteOff",
        "noteNumber": 40,
        "velocity": 64
      },
      {
        "deltaTime": 0,
        "channel": 0,
        "type": "noteOn",
        "noteNumber": 36,
        "velocity": 127
      },
      {
        "deltaTime": 0,
        "channel": 0,
        "type": "noteOn",
        "noteNumber": 38,
        "velocity": 127
      },
      {
        "deltaTime": 48,
        "channel": 0,
        "type": "noteOff",
        "noteNumber": 36,
        "velocity": 64
      },
      {
        "deltaTime": 0,
        "channel": 0,
        "type": "noteOff",
        "noteNumber": 38,
        "velocity": 64
      },
      {
        "deltaTime": 0,
        "channel": 0,
        "type": "noteOn",
        "noteNumber": 39,
        "velocity": 127
      },
      {
        "deltaTime": 0,
        "channel": 0,
        "type": "noteOn",
        "noteNumber": 41,
        "velocity": 127
      },
      {
        "deltaTime": 48,
        "channel": 0,
        "type": "noteOff",
        "noteNumber": 39,
        "velocity": 64
      },
      {
        "deltaTime": 0,
        "channel": 0,
        "type": "noteOff",
        "noteNumber": 41,
        "velocity": 64
      },
      {
        "deltaTime": 240,
        "channel": 0,
        "type": "noteOn",
        "noteNumber": 38,
        "velocity": 127
      },
      {
        "deltaTime": 0,
        "channel": 0,
        "type": "noteOn",
        "noteNumber": 36,
        "velocity": 127
      },
      {
        "deltaTime": 48,
        "channel": 0,
        "type": "noteOff",
        "noteNumber": 38,
        "velocity": 64
      },
      {
        "deltaTime": 0,
        "channel": 0,
        "type": "noteOff",
        "noteNumber": 36,
        "velocity": 64
      },
      {
        "deltaTime": 0,
        "channel": 0,
        "type": "noteOn",
        "noteNumber": 40,
        "velocity": 127
      },
      {
        "deltaTime": 0,
        "channel": 0,
        "type": "noteOn",
        "noteNumber": 42,
        "velocity": 127
      },
      {
        "deltaTime": 48,
        "channel": 0,
        "type": "noteOff",
        "noteNumber": 40,
        "velocity": 64
      },
      {
        "deltaTime": 0,
        "channel": 0,
        "type": "noteOff",
        "noteNumber": 42,
        "velocity": 64
      },
      {
        "deltaTime": 0,
        "channel": 0,
        "type": "noteOn",
        "noteNumber": 39,
        "velocity": 127
      },
      {
        "deltaTime": 0,
        "channel": 0,
        "type": "noteOn",
        "noteNumber": 37,
        "velocity": 127
      },
      {
        "deltaTime": 48,
        "channel": 0,
        "type": "noteOff",
        "noteNumber": 39,
        "velocity": 64
      },
      {
        "deltaTime": 0,
        "channel": 0,
        "type": "noteOff",
        "noteNumber": 37,
        "velocity": 64
      },
      {
        "deltaTime": 48,
        "channel": 0,
        "type": "noteOn",
        "noteNumber": 37,
        "velocity": 127
      },
      {
        "deltaTime": 0,
        "channel": 0,
        "type": "noteOn",
        "noteNumber": 41,
        "velocity": 127
      },
      {
        "deltaTime": 12,
        "channel": 0,
        "type": "noteOff",
        "noteNumber": 37,
        "velocity": 64
      },
      {
        "deltaTime": 0,
        "channel": 0,
        "type": "noteOff",
        "noteNumber": 41,
        "velocity": 64
      },
      {
        "deltaTime": 0,
        "channel": 0,
        "type": "noteOn",
        "noteNumber": 37,
        "velocity": 127
      },
      {
        "deltaTime": 0,
        "channel": 0,
        "type": "noteOn",
        "noteNumber": 41,
        "velocity": 127
      },
      {
        "deltaTime": 12,
        "channel": 0,
        "type": "noteOff",
        "noteNumber": 37,
        "velocity": 64
      },
      {
        "deltaTime": 0,
        "channel": 0,
        "type": "noteOff",
        "noteNumber": 41,
        "velocity": 64
      },
      {
        "deltaTime": 0,
        "channel": 0,
        "type": "noteOn",
        "noteNumber": 37,
        "velocity": 127
      },
      {
        "deltaTime": 0,
        "channel": 0,
        "type": "noteOn",
        "noteNumber": 41,
        "velocity": 127
      },
      {
        "deltaTime": 12,
        "channel": 0,
        "type": "noteOff",
        "noteNumber": 37,
        "velocity": 64
      },
      {
        "deltaTime": 0,
        "channel": 0,
        "type": "noteOff",
        "noteNumber": 41,
        "velocity": 64
      },
      {
        "deltaTime": 0,
        "channel": 0,
        "type": "noteOn",
        "noteNumber": 37,
        "velocity": 127
      },
      {
        "deltaTime": 0,
        "channel": 0,
        "type": "noteOn",
        "noteNumber": 41,
        "velocity": 127
      },
      {
        "deltaTime": 12,
        "channel": 0,
        "type": "noteOff",
        "noteNumber": 37,
        "velocity": 64
      },
      {
        "deltaTime": 0,
        "channel": 0,
        "type": "noteOff",
        "noteNumber": 41,
        "velocity": 64
      },
      {
        "deltaTime": 0,
        "channel": 0,
        "type": "noteOn",
        "noteNumber": 38,
        "velocity": 127
      },
      {
        "deltaTime": 0,
        "channel": 0,
        "type": "noteOn",
        "noteNumber": 40,
        "velocity": 127
      },
      {
        "deltaTime": 12,
        "channel": 0,
        "type": "noteOff",
        "noteNumber": 38,
        "velocity": 64
      },
      {
        "deltaTime": 0,
        "channel": 0,
        "type": "noteOff",
        "noteNumber": 40,
        "velocity": 64
      },
      {
        "deltaTime": 0,
        "channel": 0,
        "type": "noteOn",
        "noteNumber": 38,
        "velocity": 127
      },
      {
        "deltaTime": 0,
        "channel": 0,
        "type": "noteOn",
        "noteNumber": 40,
        "velocity": 127
      },
      {
        "deltaTime": 12,
        "channel": 0,
        "type": "noteOff",
        "noteNumber": 38,
        "velocity": 64
      },
      {
        "deltaTime": 0,
        "channel": 0,
        "type": "noteOff",
        "noteNumber": 40,
        "velocity": 64
      },
      {
        "deltaTime": 0,
        "channel": 0,
        "type": "noteOn",
        "noteNumber": 38,
        "velocity": 127
      },
      {
        "deltaTime": 0,
        "channel": 0,
        "type": "noteOn",
        "noteNumber": 40,
        "velocity": 127
      },
      {
        "deltaTime": 12,
        "channel": 0,
        "type": "noteOff",
        "noteNumber": 38,
        "velocity": 64
      },
      {
        "deltaTime": 0,
        "channel": 0,
        "type": "noteOff",
        "noteNumber": 40,
        "velocity": 64
      },
      {
        "deltaTime": 0,
        "channel": 0,
        "type": "noteOn",
        "noteNumber": 38,
        "velocity": 127
      },
      {
        "deltaTime": 0,
        "channel": 0,
        "type": "noteOn",
        "noteNumber": 40,
        "velocity": 127
      },
      {
        "deltaTime": 12,
        "channel": 0,
        "type": "noteOff",
        "noteNumber": 38,
        "velocity": 64
      },
      {
        "deltaTime": 0,
        "channel": 0,
        "type": "noteOff",
        "noteNumber": 40,
        "velocity": 64
      },
      {
        "deltaTime": 0,
        "channel": 0,
        "type": "noteOn",
        "noteNumber": 38,
        "velocity": 127
      },
      {
        "deltaTime": 0,
        "channel": 0,
        "type": "noteOn",
        "noteNumber": 40,
        "velocity": 127
      },
      {
        "deltaTime": 12,
        "channel": 0,
        "type": "noteOff",
        "noteNumber": 38,
        "velocity": 64
      },
      {
        "deltaTime": 0,
        "channel": 0,
        "type": "noteOff",
        "noteNumber": 40,
        "velocity": 64
      },
      {
        "deltaTime": 0,
        "channel": 0,
        "type": "noteOn",
        "noteNumber": 38,
        "velocity": 127
      },
      {
        "deltaTime": 0,
        "channel": 0,
        "type": "noteOn",
        "noteNumber": 40,
        "velocity": 127
      },
      {
        "deltaTime": 12,
        "channel": 0,
        "type": "noteOff",
        "noteNumber": 38,
        "velocity": 64
      },
      {
        "deltaTime": 0,
        "channel": 0,
        "type": "noteOff",
        "noteNumber": 40,
        "velocity": 64
      },
      {
        "deltaTime": 0,
        "channel": 0,
        "type": "noteOn",
        "noteNumber": 38,
        "velocity": 127
      },
      {
        "deltaTime": 0,
        "channel": 0,
        "type": "noteOn",
        "noteNumber": 40,
        "velocity": 127
      },
      {
        "deltaTime": 12,
        "channel": 0,
        "type": "noteOff",
        "noteNumber": 38,
        "velocity": 64
      },
      {
        "deltaTime": 0,
        "channel": 0,
        "type": "noteOff",
        "noteNumber": 40,
        "velocity": 64
      },
      {
        "deltaTime": 0,
        "channel": 0,
        "type": "noteOn",
        "noteNumber": 38,
        "velocity": 127
      },
      {
        "deltaTime": 0,
        "channel": 0,
        "type": "noteOn",
        "noteNumber": 40,
        "velocity": 127
      },
      {
        "deltaTime": 12,
        "channel": 0,
        "type": "noteOff",
        "noteNumber": 38,
        "velocity": 64
      },
      {
        "deltaTime": 0,
        "channel": 0,
        "type": "noteOff",
        "noteNumber": 40,
        "velocity": 64
      },
      {
        "deltaTime": 768,
        "channel": 0,
        "type": "noteOn",
        "noteNumber": 42,
        "velocity": 127
      },
      {
        "deltaTime": 24,
        "channel": 0,
        "type": "noteOff",
        "noteNumber": 42,
        "velocity": 64
      },
      {
        "deltaTime": 0,
        "channel": 0,
        "type": "noteOn",
        "noteNumber": 39,
        "velocity": 127
      },
      {
        "deltaTime": 24,
        "channel": 0,
        "type": "noteOff",
        "noteNumber": 39,
        "velocity": 64
      },
      {
        "deltaTime": 0,
        "channel": 0,
        "type": "noteOn",
        "noteNumber": 42,
        "velocity": 127
      },
      {
        "deltaTime": 24,
        "channel": 0,
        "type": "noteOff",
        "noteNumber": 42,
        "velocity": 64
      },
      {
        "deltaTime": 0,
        "channel": 0,
        "type": "noteOn",
        "noteNumber": 39,
        "velocity": 127
      },
      {
        "deltaTime": 24,
        "channel": 0,
        "type": "noteOff",
        "noteNumber": 39,
        "velocity": 64
      },
      {
        "deltaTime": 48,
        "channel": 0,
        "type": "noteOn",
        "noteNumber": 36,
        "velocity": 127
      },
      {
        "deltaTime": 24,
        "channel": 0,
        "type": "noteOff",
        "noteNumber": 36,
        "velocity": 64
      },
      {
        "deltaTime": 0,
        "channel": 0,
        "type": "noteOn",
        "noteNumber": 39,
        "velocity": 127
      },
      {
        "deltaTime": 24,
        "channel": 0,
        "type": "noteOff",
        "noteNumber": 39,
        "velocity": 64
      },
      {
        "deltaTime": 0,
        "channel": 0,
        "type": "noteOn",
        "noteNumber": 36,
        "velocity": 127
      },
      {
        "deltaTime": 24,
        "channel": 0,
        "type": "noteOff",
        "noteNumber": 36,
        "velocity": 64
      },
      {
        "deltaTime": 0,
        "channel": 0,
        "type": "noteOn",
        "noteNumber": 39,
        "velocity": 127
      },
      {
        "deltaTime": 24,
        "channel": 0,
        "type": "noteOff",
        "noteNumber": 39,
        "velocity": 64
      },
      {
        "deltaTime": 48,
        "channel": 0,
        "type": "noteOn",
        "noteNumber": 37,
        "velocity": 127
      },
      {
        "deltaTime": 0,
        "channel": 0,
        "type": "noteOn",
        "noteNumber": 41,
        "velocity": 127
      },
      {
        "deltaTime": 24,
        "channel": 0,
        "type": "noteOff",
        "noteNumber": 37,
        "velocity": 64
      },
      {
        "deltaTime": 0,
        "channel": 0,
        "type": "noteOff",
        "noteNumber": 41,
        "velocity": 64
      },
      {
        "deltaTime": 24,
        "channel": 0,
        "type": "noteOn",
        "noteNumber": 42,
        "velocity": 127
      },
      {
        "deltaTime": 0,
        "channel": 0,
        "type": "noteOn",
        "noteNumber": 36,
        "velocity": 127
      },
      {
        "deltaTime": 24,
        "channel": 0,
        "type": "noteOff",
        "noteNumber": 42,
        "velocity": 64
      },
      {
        "deltaTime": 0,
        "channel": 0,
        "type": "noteOff",
        "noteNumber": 36,
        "velocity": 64
      },
      {
        "deltaTime": 24,
        "channel": 0,
        "type": "noteOn",
        "noteNumber": 41,
        "velocity": 127
      },
      {
        "deltaTime": 24,
        "channel": 0,
        "type": "noteOff",
        "noteNumber": 41,
        "velocity": 64
      },
      {
        "deltaTime": 0,
        "channel": 0,
        "type": "noteOn",
        "noteNumber": 38,
        "velocity": 127
      },
      {
        "deltaTime": 24,
        "channel": 0,
        "type": "noteOff",
        "noteNumber": 38,
        "velocity": 64
      },
      {
        "deltaTime": 0,
        "channel": 0,
        "type": "noteOn",
        "noteNumber": 41,
        "velocity": 127
      },
      {
        "deltaTime": 24,
        "channel": 0,
        "type": "noteOff",
        "noteNumber": 41,
        "velocity": 64
      },
      {
        "deltaTime": 0,
        "channel": 0,
        "type": "noteOn",
        "noteNumber": 38,
        "velocity": 127
      },
      {
        "deltaTime": 24,
        "channel": 0,
        "type": "noteOff",
        "noteNumber": 38,
        "velocity": 64
      },
      {
        "deltaTime": 48,
        "channel": 0,
        "type": "noteOn",
        "noteNumber": 37,
        "velocity": 127
      },
      {
        "deltaTime": 24,
        "channel": 0,
        "type": "noteOff",
        "noteNumber": 37,
        "velocity": 64
      },
      {
        "deltaTime": 0,
        "channel": 0,
        "type": "noteOn",
        "noteNumber": 40,
        "velocity": 127
      },
      {
        "deltaTime": 72,
        "channel": 0,
        "type": "noteOff",
        "noteNumber": 40,
        "velocity": 64
      },
      {
        "deltaTime": 144,
        "channel": 0,
        "type": "noteOn",
        "noteNumber": 36,
        "velocity": 127
      },
      {
        "deltaTime": 24,
        "channel": 0,
        "type": "noteOff",
        "noteNumber": 36,
        "velocity": 64
      },
      {
        "deltaTime": 0,
        "channel": 0,
        "type": "noteOn",
        "noteNumber": 39,
        "velocity": 127
      },
      {
        "deltaTime": 24,
        "channel": 0,
        "type": "noteOff",
        "noteNumber": 39,
        "velocity": 64
      },
      {
        "deltaTime": 0,
        "channel": 0,
        "type": "noteOn",
        "noteNumber": 36,
        "velocity": 127
      },
      {
        "deltaTime": 24,
        "channel": 0,
        "type": "noteOff",
        "noteNumber": 36,
        "velocity": 64
      },
      {
        "deltaTime": 0,
        "channel": 0,
        "type": "noteOn",
        "noteNumber": 39,
        "velocity": 127
      },
      {
        "deltaTime": 24,
        "channel": 0,
        "type": "noteOff",
        "noteNumber": 39,
        "velocity": 64
      },
      {
        "deltaTime": 48,
        "channel": 0,
        "type": "noteOn",
        "noteNumber": 42,
        "velocity": 127
      },
      {
        "deltaTime": 24,
        "channel": 0,
        "type": "noteOff",
        "noteNumber": 42,
        "velocity": 64
      },
      {
        "deltaTime": 0,
        "channel": 0,
        "type": "noteOn",
        "noteNumber": 39,
        "velocity": 127
      },
      {
        "deltaTime": 24,
        "channel": 0,
        "type": "noteOff",
        "noteNumber": 39,
        "velocity": 64
      },
      {
        "deltaTime": 0,
        "channel": 0,
        "type": "noteOn",
        "noteNumber": 42,
        "velocity": 127
      },
      {
        "deltaTime": 24,
        "channel": 0,
        "type": "noteOff",
        "noteNumber": 42,
        "velocity": 64
      },
      {
        "deltaTime": 0,
        "channel": 0,
        "type": "noteOn",
        "noteNumber": 39,
        "velocity": 127
      },
      {
        "deltaTime": 24,
        "channel": 0,
        "type": "noteOff",
        "noteNumber": 39,
        "velocity": 64
      },
      {
        "deltaTime": 180,
        "channel": 0,
        "type": "noteOn",
        "noteNumber": 41,
        "velocity": 127
      },
      {
        "deltaTime": 36,
        "channel": 0,
        "type": "noteOff",
        "noteNumber": 41,
        "velocity": 64
      },
      {
        "deltaTime": 36,
        "channel": 0,
        "type": "noteOn",
        "noteNumber": 37,
        "velocity": 127
      },
      {
        "deltaTime": 36,
        "channel": 0,
        "type": "noteOff",
        "noteNumber": 37,
        "velocity": 64
      },
      {
        "deltaTime": 0,
        "meta": true,
        "type": "endOfTrack"
      }
    ]
  ]
}